<svg width="25" height="24" viewBox="0 0 25 24" fill="none" xmlns="http://www.w3.org/2000/svg">
<path fill-rule="evenodd" clip-rule="evenodd" d="M22.2808 2.01206C22.8673 2.61515 23.325 3.33757 23.6245 4.13307C23.9698 5.07685 24.1541 6.07489 24.1691 7.08318C24.2416 8.35663 24.2416 8.76914 24.2416 12.02C24.2416 15.2708 24.2248 15.6767 24.1691 16.9568C24.1497 17.9521 23.9673 18.9342 23.6271 19.8656C23.3272 20.661 22.8694 21.3834 22.2829 21.9867C21.6964 22.5899 20.9941 23.0608 20.2207 23.3693C19.3154 23.7181 18.3592 23.9066 17.3927 23.9268C16.1572 24 15.7523 24 12.593 24C9.43378 24 9.0392 23.9827 7.79336 23.9268C6.82485 23.8941 5.86888 23.6916 4.9666 23.328C4.19305 23.0201 3.49045 22.5496 2.9037 21.9465C2.31695 21.3434 1.85895 20.6211 1.55897 19.8257C1.21872 18.8929 1.03631 17.9109 1.01691 16.9155C0.944458 15.6421 0.944458 15.2282 0.944458 11.9787C0.944458 8.72789 0.961276 8.32203 1.01691 7.04192C1.03581 6.04769 1.21912 5.06403 1.55897 4.13307C1.85811 3.33736 2.31567 2.61476 2.90227 2.01162C3.48888 1.40848 4.19159 0.938127 4.96531 0.630739C5.8693 0.280242 6.82487 0.0912266 7.79077 0.0718562C9.02627 0 9.4312 0 12.5904 0C15.7497 0 16.1443 0.015968 17.3901 0.0718562C18.3567 0.0922704 19.313 0.281247 20.2182 0.630739C20.9917 0.938486 21.6942 1.40896 22.2808 2.01206ZM21.6464 19.0632C21.9043 18.3437 22.0404 17.5839 22.0488 16.8171V16.8184H22.063C22.1186 15.5463 22.1186 15.1976 22.1186 11.9561C22.1186 8.71325 22.1044 8.35796 22.0488 7.09249C22.0367 6.33422 21.9007 5.58344 21.6464 4.8716C21.452 4.35406 21.1545 3.88405 20.7731 3.49173C20.3917 3.09941 19.9347 2.79345 19.4316 2.59348C18.7399 2.32877 18.009 2.18877 17.2711 2.17964C16.0201 2.10646 15.6966 2.10646 12.5439 2.10646C9.39109 2.10646 9.04567 2.12242 7.81535 2.17964C7.07797 2.19024 6.34775 2.3302 5.65615 2.59348C4.63541 2.99535 3.82684 3.82169 3.43226 4.8716C3.17437 5.59072 3.03828 6.35 3.02992 7.11644C2.96135 8.40586 2.96135 8.7372 2.96135 11.9801C2.96135 15.2216 2.97429 15.5782 3.02992 16.8423C3.04197 17.6006 3.17798 18.3514 3.43226 19.0632C3.6274 19.5817 3.92617 20.0522 4.30926 20.4444C4.69234 20.8366 5.1512 21.1417 5.65615 21.34C6.34741 21.6046 7.07784 21.7446 7.81535 21.7539C9.06766 21.827 9.3898 21.827 12.5439 21.827C15.6953 21.827 16.0421 21.8124 17.2711 21.7539C18.009 21.7441 18.7397 21.6041 19.4316 21.34C19.9348 21.1405 20.3918 20.8348 20.7732 20.4427C21.1547 20.0506 21.4521 19.5807 21.6464 19.0632ZM18.8028 7.02604C19.5731 7.02604 20.1975 6.38381 20.1975 5.59157C20.1975 4.79934 19.5731 4.15711 18.8028 4.15711C18.0326 4.15711 17.4082 4.79934 17.4082 5.59157C17.4082 6.38381 18.0326 7.02604 18.8028 7.02604ZM12.584 5.81761C10.9974 5.81761 9.47588 6.46587 8.35401 7.61979C7.23215 8.77371 6.60189 10.3388 6.60189 11.9706C6.60189 13.6025 7.23215 15.1676 8.35401 16.3215C9.47588 17.4754 10.9974 18.1237 12.584 18.1237C14.1706 18.1237 15.6921 17.4754 16.814 16.3215C17.9359 15.1676 18.5661 13.6025 18.5661 11.9706C18.5661 10.3388 17.9359 8.77371 16.814 7.61979C15.6921 6.46587 14.1706 5.81761 12.584 5.81761ZM12.584 15.9667C11.5533 15.9667 10.5648 15.5455 9.83597 14.7959C9.10715 14.0462 8.6977 13.0295 8.6977 11.9693C8.6977 10.9092 9.10715 9.89241 9.83597 9.14277C10.5648 8.39312 11.5533 7.97197 12.584 7.97197C13.6147 7.97197 14.6032 8.39312 15.332 9.14277C16.0609 9.89241 16.4703 10.9092 16.4703 11.9693C16.4703 13.0295 16.0609 14.0462 15.332 14.7959C14.6032 15.5455 13.6147 15.9667 12.584 15.9667Z" fill="url(#paint0_linear_1_1012)"/>
<defs>
<linearGradient id="paint0_linear_1_1012" x1="20.4386" y1="1.11395" x2="2.272" y2="21.4942" gradientUnits="userSpaceOnUse">
<stop offset="0.17301" stop-color="#4967D5"/>
<stop offset="0.688933" stop-color="#DB2E7D"/>
<stop offset="1" stop-color="#FFAF00"/>
</linearGradient>
</defs>
</svg>
