<svg width="24" height="24" viewBox="0 0 24 24" fill="none" xmlns="http://www.w3.org/2000/svg">
<path fill-rule="evenodd" clip-rule="evenodd" d="M15.3532 17.7009L15.36 17.4243C15.36 16.7432 15.52 16.1951 15.84 15.78C18.08 13.8279 19.2 11.9611 19.2 10.1794C19.2 6.21433 15.9764 3 12 3C8.02354 3 4.79999 6.21433 4.79999 10.1794C4.79999 11.9499 5.91999 13.8168 8.15999 15.78C8.44443 16.149 8.60246 16.6231 8.63406 17.2022L8.64279 17.6028V17.6028L8.65281 17.8042V17.8042L8.67245 18.0248C8.67665 18.0629 8.68136 18.1017 8.68662 18.141L8.72519 18.383C8.93977 19.5373 9.66485 21 12 21C14.3351 21 15.0602 19.5373 15.2748 18.383L15.3134 18.141V18.141L15.3387 17.9124V17.9124L15.3532 17.7009V17.7009Z" stroke="black" stroke-width="2" stroke-linecap="round" stroke-linejoin="round"/>
<path d="M8.7002 17.0057C9.73769 17.3951 10.8376 17.5898 12 17.5898C13.1624 17.5898 14.2624 17.3951 15.3 17.0057" stroke="black" stroke-width="2" stroke-linecap="round" stroke-linejoin="round"/>
</svg>
