<svg width="25" height="24" viewBox="0 0 25 24" fill="none" xmlns="http://www.w3.org/2000/svg">
<path d="M24.2778 2.84684C23.4197 3.32792 22.4979 3.65297 21.5289 3.79989C22.5288 3.0429 23.2768 1.85148 23.6335 0.447947C22.6941 1.15395 21.6659 1.6509 20.5937 1.91719C19.8727 0.943152 18.9177 0.297546 17.877 0.0806033C16.8363 -0.13634 15.7681 0.0875171 14.8382 0.71742C13.9084 1.34732 13.1689 2.34803 12.7346 3.56417C12.3003 4.78031 12.1955 6.14385 12.4364 7.44309C10.5329 7.32216 8.67081 6.69618 6.97091 5.60576C5.271 4.51535 3.7713 2.98487 2.56914 1.11366C2.15809 2.0108 1.92173 3.05097 1.92173 4.15875C1.92127 5.15601 2.11537 6.13799 2.4868 7.01757C2.85824 7.89715 3.39552 8.64713 4.05098 9.20098C3.29082 9.17037 2.54743 8.91049 1.88268 8.44295V8.52096C1.88261 9.91965 2.26499 11.2753 2.96496 12.3579C3.66493 13.4405 4.63937 14.1833 5.72293 14.4603C5.01776 14.7018 4.27843 14.7374 3.5608 14.5644C3.86652 15.7678 4.46203 16.8203 5.26396 17.5742C6.06589 18.3282 7.0341 18.7461 8.03304 18.7692C6.33728 20.4535 4.24303 21.3672 2.08718 21.3632C1.70529 21.3633 1.32373 21.3351 0.944458 21.2786C3.13277 23.0589 5.68012 24.0037 8.28173 24C17.0885 24 21.9029 14.7711 21.9029 6.76698C21.9029 6.50694 21.8978 6.24429 21.8886 5.98425C22.825 5.12738 23.6334 4.0663 24.2757 2.85074L24.2778 2.84684Z" fill="url(#paint0_linear_1_1042)"/>
<defs>
<linearGradient id="paint0_linear_1_1042" x1="2.08267" y1="1.81818" x2="18.7308" y2="16.2617" gradientUnits="userSpaceOnUse">
<stop stop-color="#009EFF"/>
<stop offset="1" stop-color="#00FAFA"/>
</linearGradient>
</defs>
</svg>
