<svg width="24" height="24" viewBox="0 0 24 24" fill="none" xmlns="http://www.w3.org/2000/svg">
<path fill-rule="evenodd" clip-rule="evenodd" d="M17.6534 14.382C17.3637 14.233 15.9433 13.515 15.6788 13.415C15.4144 13.316 15.2219 13.267 15.0284 13.565C14.8359 13.861 14.2827 14.531 14.1145 14.729C13.9453 14.928 13.7771 14.952 13.4884 14.804C13.1996 14.654 12.2683 14.341 11.1648 13.329C10.3063 12.541 9.7259 11.568 9.55771 11.27C9.38951 10.973 9.53924 10.812 9.6841 10.664C9.81438 10.531 9.97285 10.317 10.1177 10.144C10.2626 9.97002 10.3102 9.84602 10.4065 9.64703C10.5037 9.44903 10.4551 9.27603 10.3822 9.12703C10.3102 8.97803 9.73271 7.51503 9.4916 6.92003C9.25729 6.34103 9.0191 6.42003 8.84215 6.41003C8.67299 6.40203 8.48049 6.40003 8.28799 6.40003C8.09549 6.40003 7.78243 6.47403 7.51799 6.77203C7.25257 7.06903 6.50688 7.78803 6.50688 9.25103C6.50688 10.713 7.54132 12.126 7.68618 12.325C7.83105 12.523 9.72299 15.525 12.6212 16.812C13.3115 17.118 13.8491 17.301 14.2681 17.437C14.9603 17.664 15.5903 17.632 16.0881 17.555C16.6423 17.47 17.7973 16.836 18.0384 16.142C18.2785 15.448 18.2785 14.853 18.2066 14.729C18.1346 14.605 17.9421 14.531 17.6524 14.382H17.6534ZM12.382 21.785H12.3781C10.6567 21.7853 8.96696 21.3094 7.48591 20.407L7.13591 20.193L3.49786 21.175L4.46911 17.527L4.24063 17.153C3.27827 15.5774 2.76898 13.7538 2.77161 11.893C2.77355 6.44303 7.08438 2.00904 12.3859 2.00904C14.9526 2.00904 17.3656 3.03904 19.1798 4.90703C20.0746 5.82361 20.7838 6.9136 21.2664 8.11392C21.749 9.31425 21.9955 10.6011 21.9914 11.9C21.9895 17.35 17.6787 21.785 12.382 21.785V21.785ZM20.5603 3.48804C19.4891 2.37896 18.2146 1.49958 16.8106 0.90084C15.4065 0.302104 13.9009 -0.00407624 12.381 4.09775e-05C6.0091 4.09775e-05 0.821334 5.33503 0.81939 11.892C0.818418 13.988 1.35022 16.034 2.3623 17.837L0.722168 24L6.85105 22.346C8.54648 23.2961 10.4464 23.794 12.3771 23.794H12.382C18.7539 23.794 23.9417 18.459 23.9437 11.901C23.9484 10.3383 23.6518 8.79013 23.071 7.34606C22.4903 5.902 21.6369 4.5907 20.5603 3.48804" fill="url(#paint0_linear_1_1055)"/>
<defs>
<linearGradient id="paint0_linear_1_1055" x1="22.2446" y1="-1.52043" x2="-1.68917" y2="16.0406" gradientUnits="userSpaceOnUse">
<stop stop-color="#25B43B"/>
<stop offset="1" stop-color="#09DDB7"/>
<stop offset="1" stop-color="#09DDB7"/>
</linearGradient>
</defs>
</svg>
